<?xml version="1.0" standalone="no"?>
<!DOCTYPE svg PUBLIC "-//W3C//DTD SVG 20010904//EN"
 "http://www.w3.org/TR/2001/REC-SVG-20010904/DTD/svg10.dtd">
<svg version="1.0" xmlns="http://www.w3.org/2000/svg"
 width="160.000000pt" height="200.000000pt" viewBox="0 0 160.000000 200.000000"
 preserveAspectRatio="xMidYMid meet">

<g transform="translate(0.000000,200.000000) scale(0.100000,-0.100000)"
fill="#000000" stroke="none">
<path d="M644 1956 c-105 -50 -136 -83 -192 -199 -27 -56 -71 -129 -98 -162
-51 -62 -84 -109 -84 -121 0 -4 13 11 29 32 34 46 91 102 91 88 0 -5 -29 -67
-65 -139 -36 -71 -65 -137 -65 -145 0 -8 11 8 24 35 27 56 80 139 72 113 -49
-161 -66 -220 -71 -252 -5 -29 -9 -36 -16 -25 -24 38 -4 -14 29 -75 36 -67 39
-70 88 -81 27 -6 56 -15 64 -20 17 -11 163 -24 170 -15 3 4 20 -4 39 -17 19
-13 27 -23 19 -23 -7 0 -20 6 -27 12 -14 13 -14 12 4 -78 4 -20 1 -17 -10 11
-9 22 -19 43 -23 47 -7 7 -67 -7 -81 -18 -2 -2 10 -20 26 -41 54 -69 66 -102
77 -222 l11 -113 145 -60 c142 -57 303 -103 446 -127 86 -15 139 -4 185 37
l31 27 -23 59 c-29 78 -83 135 -188 198 -105 62 -157 110 -183 166 -10 23 -22
42 -27 42 -11 0 -33 -94 -41 -179 l-7 -76 -1 60 c-1 33 11 120 27 193 28 127
47 175 61 152 4 -6 44 5 110 32 108 44 190 105 190 143 0 10 11 41 24 70 57
119 44 207 -42 298 -49 52 -52 58 -24 41 40 -23 66 -49 86 -89 9 -16 16 -24
16 -17 0 7 -9 30 -20 52 -15 29 -41 53 -98 89 -62 40 -88 65 -126 120 -75 110
-154 158 -319 192 -126 26 -152 24 -233 -15z m766 -496 c11 -47 7 -118 -10
-149 -4 -8 -13 22 -20 70 -7 46 -23 113 -36 149 l-23 65 39 -43 c25 -28 42
-60 50 -92z m-928 -140 c3 -52 2 -84 -2 -70 -8 25 -13 177 -6 169 2 -2 6 -47
8 -99z m522 -291 c-33 -38 -133 -79 -189 -78 l-50 1 60 14 c33 8 89 30 125 48
36 18 67 34 69 34 2 1 -4 -8 -15 -19z"/>
<path d="M253 1240 c0 -25 2 -35 4 -22 2 12 2 32 0 45 -2 12 -4 2 -4 -23z"/>
<path d="M354 921 c-59 -27 -151 -143 -169 -213 -6 -25 -6 -25 62 -25 86 0
205 -39 306 -99 40 -24 76 -44 81 -44 16 0 -4 202 -25 250 -36 80 -122 150
-186 150 -15 0 -46 -9 -69 -19z"/>
</g>
</svg>
